<?xml version="1.0" encoding="UTF-8"?>
<svg width="44px" height="43px" viewBox="0 0 44 43" version="1.1" xmlns="http://www.w3.org/2000/svg" xmlns:xlink="http://www.w3.org/1999/xlink">
    <!-- Generator: Sketch 49.1 (51147) - http://www.bohemiancoding.com/sketch -->
    <title>icon</title>
    <desc>Created with Sketch.</desc>
    <defs></defs>
    <g id="蓝鲸erp" stroke="none" stroke-width="1" fill="none" fill-rule="evenodd">
        <g id="邮件营销" transform="translate(-559.000000, -453.000000)">
            <g id="删除营销计划弹窗">
                <g id="内容" transform="translate(559.583333, 453.333333)">
                    <g id="icon">
                        <g id="auto_email_popup_icon_prompt" fill="#FF6B6B">
                            <circle id="Oval-5" cx="21.25" cy="21.25" r="21.25"></circle>
                        </g>
                        <g id="删除" transform="translate(12.041667, 10.625000)" fill="#FFFFFF" fill-rule="nonzero">
                            <path d="M11.3073276,18.5802581 C11.7943589,18.5802581 12.1946935,18.1917795 12.206593,17.7332058 L12.467533,7.31522185 C12.4794325,6.84820295 12.0858977,6.45550173 11.5895167,6.44536748 C11.0846362,6.43776681 10.6800517,6.80006537 10.6690021,7.26623976 L10.4080622,17.6943579 C10.4060255,17.9275905 10.4974416,18.1520498 10.6621517,18.3182389 C10.8268617,18.4844279 11.0513376,18.578697 11.2860784,18.5802581 L11.3073276,18.5802581 Z M7.0693906,18.5802581 L7.09063979,18.5802581 C7.58787067,18.5802581 7.98055555,18.1318186 7.96865602,17.6656443 L7.70771605,7.23330353 C7.69581652,6.76712914 7.28868216,6.38625117 6.78720146,6.39638539 C6.29082054,6.40736413 5.89728569,6.7873976 5.90918523,7.25441651 L6.17097516,17.7078702 C6.19195062,18.1886098 6.58519537,18.5704621 7.0693906,18.5802581 Z M7.5592905,2.89669948 L10.8558738,2.89669948 L10.8558738,1.68988211 L7.5592905,1.68988211 L7.5592905,2.89669948 Z M18.4166667,3.86029544 C18.4166667,4.39403133 18.0334583,4.82558042 17.5595833,4.82558042 L0.857083337,4.82558042 C0.382499994,4.82642494 0,4.39487584 0,3.86113995 C0,3.32909312 0.383208325,2.89669948 0.857083337,2.89669948 L5.5675,2.89669948 L5.5675,0.724597123 C5.5675,0.258422736 5.84374999,0.000844516642 6.258125,0.000844516642 L12.1585417,0.000844516642 C12.5729167,0.000844516642 12.8491667,0.258422757 12.8491667,0.724597123 L12.8491667,2.897544 L17.5595833,2.897544 C18.0334583,2.897544 18.4166667,3.3290931 18.4166667,3.86198447 L18.4166667,3.86029544 Z M16.6082961,7.09148167 L15.9107072,21.0437189 C15.8857663,21.5563707 15.4844448,21.9583844 14.9984756,21.9583844 L3.41381427,21.9583844 C2.92784498,21.9583844 2.52652354,21.5563707 2.50158266,21.0437189 L1.80399378,7.09148167 C1.77678554,6.55940483 2.16450288,6.10418351 2.66861098,6.07631283 C3.17498644,6.05097584 3.60276033,6.45721228 3.62921279,6.98928913 L4.28069884,20.0277055 L14.131591,20.0277055 L14.7830771,6.98928913 C14.8095295,6.4572123 15.2425939,6.0518204 15.7436789,6.07715739 C16.247787,6.10418351 16.6355043,6.55856025 16.6082961,7.0906371 L16.6082961,7.09148167 Z" id="Shape"></path>
                        </g>
                    </g>
                </g>
            </g>
        </g>
    </g>
</svg>