<?xml version="1.0" encoding="UTF-8"?>
<svg width="60px" height="60px" viewBox="0 0 60 60" version="1.1" xmlns="http://www.w3.org/2000/svg" xmlns:xlink="http://www.w3.org/1999/xlink">
    <!-- Generator: Sketch 49.3 (51167) - http://www.bohemiancoding.com/sketch -->
    <title>auto_email_popup_icon_prompt@1x</title>
    <desc>Created with Sketch.</desc>
    <defs></defs>
    <g id="Welcome" stroke="none" stroke-width="1" fill="none" fill-rule="evenodd">
        <g id="1-|-自动信-copy" transform="translate(-814.000000, -938.000000)">
            <g id="删除二次确认" transform="translate(638.000000, 862.000000)">
                <g id="Group-4" transform="translate(176.000000, 76.000000)">
                    <g id="Group-9">
                        <g id="auto_email_popup_icon_prompt">
                            <circle id="Oval-5" fill="#FFCD6B" cx="30" cy="30" r="30"></circle>
                            <path d="M30.2252747,12 C33.3901099,12 35.9120879,12.8406593 37.8406593,14.6208791 C39.6703297,16.3021978 40.6098901,18.6263736 40.6098901,21.5934066 C40.6098901,23.8186813 39.967033,25.7472527 38.7307692,27.3791209 C38.2362637,27.9725275 36.9010989,29.2582418 34.7252747,31.1868132 C33.6373626,32.1263736 32.8956044,33.0164835 32.4010989,33.9065934 C31.7582418,34.9945055 31.4615385,36.1813187 31.4615385,37.5164835 L31.4615385,38.6538462 L27.5054945,38.6538462 L27.5054945,37.5164835 C27.5054945,35.8846154 27.8021978,34.4505495 28.3956044,33.2142857 C29.0879121,31.7307692 30.7197802,29.8516484 33.3901099,27.478022 C34.1813187,26.6868132 34.7747253,26.0934066 35.0714286,25.6978022 C36.0604396,24.4615385 36.5549451,23.1758242 36.5549451,21.7912088 C36.5549451,19.8131868 35.9615385,18.2802198 34.8736264,17.1923077 C33.7362637,16.0054945 32.1043956,15.4615385 30.0274725,15.4615385 C27.5549451,15.4615385 25.7252747,16.2527473 24.5384615,17.8846154 C23.4505495,19.2692308 22.9065934,21.1483516 22.9065934,23.5714286 L19,23.5714286 C19,20.1098901 19.9395604,17.3406593 21.9175824,15.2637363 C23.8956044,13.0879121 26.6648352,12 30.2252747,12 Z M29.4835165,42.1153846 C30.3241758,42.1153846 31.0659341,42.3626374 31.6593407,42.956044 C32.2032967,43.5 32.5,44.1923077 32.5,45.032967 C32.5,45.9230769 32.2032967,46.6153846 31.6098901,47.1593407 C31.0164835,47.7032967 30.3241758,48 29.4835165,48 C28.6428571,48 27.9505495,47.7032967 27.3571429,47.1593407 C26.7637363,46.5659341 26.5164835,45.8736264 26.5164835,45.032967 C26.5164835,44.1923077 26.7637363,43.5 27.3571429,42.956044 C27.9505495,42.3626374 28.6428571,42.1153846 29.4835165,42.1153846 Z" id="？" fill="#FFFFFF"></path>
                        </g>
                    </g>
                </g>
            </g>
        </g>
    </g>
</svg>