<?xml version="1.0" standalone="no"?><!DOCTYPE svg PUBLIC "-//W3C//DTD SVG 1.1//EN" "http://www.w3.org/Graphics/SVG/1.1/DTD/svg11.dtd"><svg t="1608175409391" class="icon" viewBox="0 0 1024 1024" version="1.1" xmlns="http://www.w3.org/2000/svg" p-id="7515" xmlns:xlink="http://www.w3.org/1999/xlink" width="200" height="200"><defs><style type="text/css"></style></defs><path d="M229.9904 476.3648h431.9232l-153.6-153.6c-13.7216-13.7216-13.7216-36.4544 0-50.176 13.7216-13.7216 36.4544-13.7216 50.176 0L768 482.0992c9.8304 6.3488 16.384 17.408 16.384 29.9008s-6.5536 23.552-16.384 29.9008L558.4896 751.4112c-13.7216 13.7216-36.4544 13.7216-50.176 0-13.7216-13.7216-13.7216-36.4544 0-50.176l153.6-153.6H229.9904c-19.456 0-35.6352-15.9744-35.6352-35.6352 0-19.456 15.9744-35.6352 35.6352-35.6352z" p-id="7516" fill="#72A0FD"></path><path d="M40.96 512C40.96 252.3136 252.1088 40.96 512 40.96s471.04 211.3536 471.04 471.04-211.3536 471.04-471.04 471.04S40.96 771.6864 40.96 512z m71.0656 0c0 220.5696 179.4048 399.9744 399.9744 399.9744 220.5696 0 399.9744-179.4048 399.9744-399.9744 0-220.5696-179.4048-399.9744-399.9744-399.9744-220.5696 0-399.9744 179.4048-399.9744 399.9744z" p-id="7517" fill="#72A0FD"></path></svg>