<?xml version="1.0" standalone="no"?><!DOCTYPE svg PUBLIC "-//W3C//DTD SVG 1.1//EN" "http://www.w3.org/Graphics/SVG/1.1/DTD/svg11.dtd"><svg class="icon" width="200px" height="200.00px" viewBox="0 0 1024 1024" version="1.1" xmlns="http://www.w3.org/2000/svg"><path d="M793.8048 476.3648H361.8816l153.6-153.6c13.7216-13.7216 13.7216-36.4544 0-50.176-13.7216-13.7216-36.4544-13.7216-50.176 0L255.7952 482.0992c-9.8304 6.3488-16.384 17.408-16.384 29.9008s6.5536 23.552 16.384 29.9008l209.5104 209.5104c13.7216 13.7216 36.4544 13.7216 50.176 0 13.7216-13.7216 13.7216-36.4544 0-50.176l-153.6-153.6h431.9232c19.456 0 35.6352-15.9744 35.6352-35.6352 0-19.456-15.9744-35.6352-35.6352-35.6352z" fill="#707070" /><path d="M512 983.04C252.1088 983.04 40.96 771.6864 40.96 512S252.1088 40.96 512 40.96s471.04 211.3536 471.04 471.04-211.3536 471.04-471.04 471.04z m0-871.0144C291.4304 112.0256 112.0256 291.4304 112.0256 512c0 220.5696 179.4048 399.9744 399.9744 399.9744 220.5696 0 399.9744-179.4048 399.9744-399.9744-0.2048-220.5696-179.6096-399.9744-399.9744-399.9744z" fill="#707070" /></svg>